<svg xmlns="http://www.w3.org/2000/svg" viewBox="0 0 22 21" fill="none">
  <path fill-rule="evenodd" clip-rule="evenodd" d="M21.1807 5C21.1807 5.55228 20.7329 6 20.1807 6H16.7646C16.2124 6 15.7646 6.44772 15.7646 7V8C15.7646 8.55228 16.2124 9 16.7646 9H20.1807C20.7329 9 21.1807 9.44772 21.1807 10V14C21.1807 14.5523 20.7329 15 20.1807 15H11.5908C11.0385 15 10.5908 15.4477 10.5908 16V17C10.5908 17.5523 11.0385 18 11.5908 18H20.1807C20.7329 18 21.1807 18.4477 21.1807 19V20C21.1807 20.5523 20.7329 21 20.1807 21H6.2959C5.74361 21 5.2959 20.5523 5.2959 20V19C5.2959 18.4477 4.84818 18 4.2959 18H1C0.447715 18 0 17.5523 0 17V16C0 15.4477 0.447715 15 1 15H1.64453C2.19682 15 2.64453 14.5523 2.64453 14V13C2.64453 12.4477 2.19682 12 1.64453 12H1C0.447715 12 0 11.5523 0 11V7C0 6.44772 0.447715 6 1 6H6.5625C7.11478 6 7.5625 5.55228 7.5625 5V4C7.5625 3.44772 7.11478 3 6.5625 3H1C0.447715 3 0 2.55228 0 2V1C0 0.447715 0.447715 0 1 0H10.7021C11.2544 0 11.7021 0.447715 11.7021 1V2C11.7021 2.55228 12.1499 3 12.7021 3H20.1807C20.7329 3 21.1807 3.44772 21.1807 4V5ZM7.99902 11C7.99902 11.5523 8.44674 12 8.99902 12H12.1816C12.7339 12 13.1816 11.5523 13.1816 11V10C13.1816 9.44772 12.7339 9 12.1816 9H8.99902C8.44674 9 7.99902 9.44772 7.99902 10V11Z" fill="#ffffff"></path>
</svg>